<?xml version="1.0" encoding="UTF-8"?>
<svg width="272px" height="50px" viewBox="0 0 272 50" version="1.1" xmlns="http://www.w3.org/2000/svg" xmlns:xlink="http://www.w3.org/1999/xlink">
    <!-- Generator: Sketch 51.3 (57544) - http://www.bohemiancoding.com/sketch -->
    <title>expressx-logo</title>
    <desc>Created with Sketch.</desc>
    <defs></defs>
    <g id="Page-1" stroke="none" stroke-width="1" fill="none" fill-rule="evenodd">
        <g id="expressx-logo">
            <path d="M17.734,35.66 C15.3139879,35.66 13.0700103,35.1870047 11.002,34.241 C8.93398966,33.2949953 7.14100759,31.9970083 5.623,30.347 C4.10499241,28.6969917 2.91700429,26.7940108 2.059,24.638 C1.20099571,22.4819892 0.772,20.1720123 0.772,17.708 C0.772,15.2879879 1.20099571,13.0110107 2.059,10.877 C2.91700429,8.74298933 4.09399252,6.87300803 5.59,5.267 C7.08600748,3.66099197 8.86798966,2.39600462 10.936,1.472 C13.0040103,0.54799538 15.2259881,0.086 17.602,0.086 C20.0220121,0.086 22.2549898,0.55899527 24.301,1.505 C26.3470102,2.45100473 28.1179925,3.72699197 29.614,5.333 C31.1100075,6.93900803 32.2869957,8.80898933 33.145,10.943 C34.0030043,13.0770107 34.432,15.3319881 34.432,17.708 C34.432,17.9280011 34.4210001,18.2029984 34.399,18.533 C34.3769999,18.8630017 34.366,19.0719996 34.366,19.16 L4.204,19.16 C4.33600066,21.1400099 4.79799604,22.9769915 5.59,24.671 C6.38200396,26.3650085 7.38299395,27.8279938 8.593,29.06 C9.80300605,30.2920062 11.1999921,31.2599965 12.784,31.964 C14.3680079,32.6680035 16.061991,33.02 17.866,33.02 C19.0540059,33.02 20.2309942,32.8550016 21.397,32.525 C22.5630058,32.1949983 23.6409951,31.7440029 24.631,31.172 C25.621005,30.5999971 26.5009961,29.9070041 27.271,29.093 C28.0410038,28.2789959 28.6459978,27.3880048 29.086,26.42 L31.99,27.212 C31.4619974,28.4440062 30.7250047,29.5769948 29.779,30.611 C28.8329953,31.6450052 27.7330063,32.5359963 26.479,33.284 C25.2249937,34.0320037 23.8500075,34.6149979 22.354,35.033 C20.8579925,35.4510021 19.3180079,35.66 17.734,35.66 Z M31.198,16.52 C31.0659993,14.4959899 30.6150038,12.6480084 29.845,10.976 C29.0749962,9.30399164 28.085006,7.86300605 26.875,6.653 C25.664994,5.44299395 24.2680079,4.49700341 22.684,3.815 C21.0999921,3.13299659 19.406009,2.792 17.602,2.792 C15.797991,2.792 14.1040079,3.13299659 12.52,3.815 C10.9359921,4.49700341 9.53900605,5.44299395 8.329,6.653 C7.11899395,7.86300605 6.15100363,9.31499153 5.425,11.009 C4.69899637,12.7030085 4.27000066,14.5399901 4.138,16.52 L31.198,16.52 Z M41.01,0.68 L52.032,14.87 L52.56,15.794 L53.154,14.87 L64.176,0.68 L67.806,0.68 L54.474,17.906 L67.806,35 L64.11,35 L53.154,20.876 L52.56,20.018 L52.032,20.876 L41.076,35 L37.38,35 L50.712,17.906 L37.314,0.68 L41.01,0.68 Z M91.742,35.66 C88.7939853,35.66 86.1760115,34.8790078 83.888,33.317 C81.5999886,31.7549922 79.7520071,29.8520112 78.344,27.608 L78.344,49.058 L75.044,49.058 L75.044,0.68 L78.014,0.68 L78.014,7.544 C79.4220071,5.343989 81.2919884,3.55100693 83.624,2.165 C85.9560117,0.77899307 88.4419868,0.086 91.082,0.086 C93.4580119,0.086 95.64699,0.59199494 97.649,1.604 C99.6510101,2.61600506 101.377993,3.94699175 102.83,5.597 C104.282007,7.24700825 105.414996,9.14998922 106.229,11.306 C107.043004,13.4620108 107.45,15.6619888 107.45,17.906 C107.45,20.2820119 107.076004,22.5479892 106.328,24.704 C105.579996,26.8600108 104.513007,28.7519919 103.127,30.38 C101.740993,32.0080081 100.08001,33.2949953 98.144,34.241 C96.2079904,35.1870047 94.0740117,35.66 91.742,35.66 Z M91.016,32.69 C92.9960099,32.69 94.788992,32.2720042 96.395,31.436 C98.0010081,30.5999958 99.3759943,29.4890069 100.52,28.103 C101.664006,26.7169931 102.543997,25.1330089 103.16,23.351 C103.776003,21.5689911 104.084,19.7540092 104.084,17.906 C104.084,15.9259901 103.732004,14.0450089 103.028,12.263 C102.323997,10.4809911 101.356006,8.90800682 100.124,7.544 C98.8919939,6.17999318 97.4400084,5.09100407 95.768,4.277 C94.0959917,3.46299593 92.3140095,3.056 90.422,3.056 C89.2339941,3.056 87.9580069,3.30899747 86.594,3.815 C85.2299932,4.32100253 83.954006,5.00299571 82.766,5.861 C81.5779941,6.71900429 80.5770041,7.6979945 79.763,8.798 C78.948996,9.8980055 78.4760007,11.0639938 78.344,12.296 L78.344,23.582 C78.8720027,24.8580064 79.5759956,26.0459945 80.456,27.146 C81.3360044,28.2460055 82.3259945,29.2139958 83.426,30.05 C84.5260055,30.8860042 85.7249936,31.5349977 87.023,31.997 C88.3210065,32.4590023 89.6519932,32.69 91.016,32.69 Z M132.706,3.65 C129.581984,3.73800044 126.876012,4.65099131 124.588,6.389 C122.299989,8.12700869 120.694005,10.5139848 119.77,13.55 L119.77,35 L116.47,35 L116.47,0.68 L119.572,0.68 L119.572,9.128 C120.760006,6.7079879 122.33299,4.73900759 124.291,3.221 C126.24901,1.70299241 128.349989,0.8340011 130.594,0.614 C131.034002,0.614 131.429998,0.60300011 131.782,0.581 C132.134002,0.55899989 132.441999,0.548 132.706,0.548 L132.706,3.65 Z M154.728,35.66 C152.307988,35.66 150.06401,35.1870047 147.996,34.241 C145.92799,33.2949953 144.135008,31.9970083 142.617,30.347 C141.098993,28.6969917 139.911004,26.7940108 139.053,24.638 C138.194996,22.4819892 137.766,20.1720123 137.766,17.708 C137.766,15.2879879 138.194996,13.0110107 139.053,10.877 C139.911004,8.74298933 141.087993,6.87300803 142.584,5.267 C144.080008,3.66099197 145.86199,2.39600462 147.93,1.472 C149.99801,0.54799538 152.219988,0.086 154.596,0.086 C157.016012,0.086 159.24899,0.55899527 161.295,1.505 C163.34101,2.45100473 165.111993,3.72699197 166.608,5.333 C168.104008,6.93900803 169.280996,8.80898933 170.139,10.943 C170.997004,13.0770107 171.426,15.3319881 171.426,17.708 C171.426,17.9280011 171.415,18.2029984 171.393,18.533 C171.371,18.8630017 171.36,19.0719996 171.36,19.16 L141.198,19.16 C141.330001,21.1400099 141.791996,22.9769915 142.584,24.671 C143.376004,26.3650085 144.376994,27.8279938 145.587,29.06 C146.797006,30.2920062 148.193992,31.2599965 149.778,31.964 C151.362008,32.6680035 153.055991,33.02 154.86,33.02 C156.048006,33.02 157.224994,32.8550016 158.391,32.525 C159.557006,32.1949983 160.634995,31.7440029 161.625,31.172 C162.615005,30.5999971 163.494996,29.9070041 164.265,29.093 C165.035004,28.2789959 165.639998,27.3880048 166.08,26.42 L168.984,27.212 C168.455997,28.4440062 167.719005,29.5769948 166.773,30.611 C165.826995,31.6450052 164.727006,32.5359963 163.473,33.284 C162.218994,34.0320037 160.844008,34.6149979 159.348,35.033 C157.851993,35.4510021 156.312008,35.66 154.728,35.66 Z M168.192,16.52 C168.059999,14.4959899 167.609004,12.6480084 166.839,10.976 C166.068996,9.30399164 165.079006,7.86300605 163.869,6.653 C162.658994,5.44299395 161.262008,4.49700341 159.678,3.815 C158.093992,3.13299659 156.400009,2.792 154.596,2.792 C152.791991,2.792 151.098008,3.13299659 149.514,3.815 C147.929992,4.49700341 146.533006,5.44299395 145.323,6.653 C144.112994,7.86300605 143.145004,9.31499153 142.419,11.009 C141.692996,12.7030085 141.264001,14.5399901 141.132,16.52 L168.192,16.52 Z M190.676,35.66 C188.035987,35.66 185.506012,35.2200044 183.086,34.34 C180.665988,33.4599956 178.554009,32.1400088 176.75,30.38 L178.4,28.136 C180.248009,29.8080084 182.16199,31.039996 184.142,31.832 C186.12201,32.624004 188.299988,33.02 190.676,33.02 C193.668015,33.02 196.076991,32.3930063 197.903,31.139 C199.729009,29.8849937 200.642,28.1360112 200.642,25.892 C200.642,24.8359947 200.411002,23.9450036 199.949,23.219 C199.486998,22.4929964 198.794005,21.8770025 197.87,21.371 C196.945995,20.8649975 195.802007,20.414002 194.438,20.018 C193.073993,19.621998 191.490009,19.2040022 189.686,18.764 C187.74999,18.3239978 186.067007,17.8840022 184.637,17.444 C183.206993,17.0039978 182.030005,16.4760031 181.106,15.86 C180.181995,15.2439969 179.489002,14.4960044 179.027,13.616 C178.564998,12.7359956 178.334,11.6140068 178.334,10.25 C178.334,8.53399142 178.663997,7.03800638 179.324,5.762 C179.984003,4.48599362 180.896994,3.43000418 182.063,2.594 C183.229006,1.75799582 184.570993,1.13100209 186.089,0.713 C187.607008,0.29499791 189.223992,0.086 190.94,0.086 C193.624014,0.086 195.99999,0.53699549 198.068,1.439 C200.13601,2.34100451 201.741994,3.49599296 202.886,4.904 L201.038,6.686 C199.893994,5.3659934 198.409009,4.3760033 196.583,3.716 C194.756991,3.0559967 192.81001,2.726 190.742,2.726 C189.465994,2.726 188.267006,2.85799868 187.145,3.122 C186.022995,3.38600132 185.044004,3.80399714 184.208,4.376 C183.371996,4.94800286 182.712003,5.68499549 182.228,6.587 C181.743998,7.48900451 181.502,8.55599384 181.502,9.788 C181.502,10.8000051 181.666998,11.6139969 181.997,12.23 C182.327002,12.8460031 182.854996,13.3739978 183.581,13.814 C184.307004,14.2540022 185.241994,14.6389984 186.386,14.969 C187.530006,15.2990016 188.893992,15.661998 190.478,16.058 C192.634011,16.5860026 194.547992,17.0919976 196.22,17.576 C197.892008,18.0600024 199.288995,18.6539965 200.411,19.358 C201.533006,20.0620035 202.390997,20.8979952 202.985,21.866 C203.579003,22.8340048 203.876,24.0659925 203.876,25.562 C203.876,28.6420154 202.677012,31.0949909 200.279,32.921 C197.880988,34.7470091 194.68002,35.66 190.676,35.66 Z M223.522,35.66 C220.881987,35.66 218.352012,35.2200044 215.932,34.34 C213.511988,33.4599956 211.400009,32.1400088 209.596,30.38 L211.246,28.136 C213.094009,29.8080084 215.00799,31.039996 216.988,31.832 C218.96801,32.624004 221.145988,33.02 223.522,33.02 C226.514015,33.02 228.922991,32.3930063 230.749,31.139 C232.575009,29.8849937 233.488,28.1360112 233.488,25.892 C233.488,24.8359947 233.257002,23.9450036 232.795,23.219 C232.332998,22.4929964 231.640005,21.8770025 230.716,21.371 C229.791996,20.8649975 228.648007,20.414002 227.284,20.018 C225.919993,19.621998 224.336009,19.2040022 222.532,18.764 C220.59599,18.3239978 218.913007,17.8840022 217.483,17.444 C216.052993,17.0039978 214.876005,16.4760031 213.952,15.86 C213.027996,15.2439969 212.335002,14.4960044 211.873,13.616 C211.410998,12.7359956 211.18,11.6140068 211.18,10.25 C211.18,8.53399142 211.509997,7.03800638 212.17,5.762 C212.830003,4.48599362 213.742994,3.43000418 214.909,2.594 C216.075006,1.75799582 217.416993,1.13100209 218.935,0.713 C220.453008,0.29499791 222.069992,0.086 223.786,0.086 C226.470014,0.086 228.84599,0.53699549 230.914,1.439 C232.98201,2.34100451 234.587994,3.49599296 235.732,4.904 L233.884,6.686 C232.739994,5.3659934 231.255009,4.3760033 229.429,3.716 C227.602991,3.0559967 225.65601,2.726 223.588,2.726 C222.311994,2.726 221.113006,2.85799868 219.991,3.122 C218.868995,3.38600132 217.890004,3.80399714 217.054,4.376 C216.217996,4.94800286 215.558003,5.68499549 215.074,6.587 C214.589998,7.48900451 214.348,8.55599384 214.348,9.788 C214.348,10.8000051 214.512998,11.6139969 214.843,12.23 C215.173002,12.8460031 215.700997,13.3739978 216.427,13.814 C217.153004,14.2540022 218.087994,14.6389984 219.232,14.969 C220.376006,15.2990016 221.739992,15.661998 223.324,16.058 C225.480011,16.5860026 227.393992,17.0919976 229.066,17.576 C230.738009,18.0600024 232.134995,18.6539965 233.257,19.358 C234.379006,20.0620035 235.236997,20.8979952 235.831,21.866 C236.425003,22.8340048 236.722,24.0659925 236.722,25.562 C236.722,28.6420154 235.523012,31.0949909 233.125,32.921 C230.726988,34.7470091 227.52602,35.66 223.522,35.66 Z" id="expressx" fill="#3D3D3D"></path>
            <polygon id="Path" fill="#FF5F5F" points="244.62 0.68 255.642 14.87 256.17 15.794 256.764 14.87 267.786 0.68 271.416 0.68 258.084 17.906 271.416 35 267.72 35 256.764 20.876 256.17 20.018 255.642 20.876 244.686 35 240.99 35 254.322 17.906 240.924 0.68"></polygon>
        </g>
    </g>
</svg>